Coordinates
version=1
nRows=29
nColumns=24
inDegrees=yes

Units are S.I. units (second, meters, Newtons, ...)
Angles are in degrees.

endheader
time	pelvis_tilt	pelvis_list	pelvis_rotation	pelvis_tx	pelvis_ty	pelvis_tz	hip_flexion_r	hip_adduction_r	hip_rotation_r	knee_angle_r	ankle_angle_r	subtalar_angle_r	mtp_angle_r	hip_flexion_l	hip_adduction_l	hip_rotation_l	knee_angle_l	ankle_angle_l	subtalar_angle_l	mtp_angle_l	lumbar_extension	lumbar_bending	lumbar_rotation
      3.11000000	    -10.08129745	      8.98851162	     -3.63955488	     -2.31440172	     -0.04071592	      0.44736997	     12.83176359	    -10.33748246	      7.23928174	    -54.64419092	     -8.73646669	      7.33459601	     21.16119813	     31.56476952	     12.12930146	      2.81984099	    -26.85048246	     -2.27739792	     -3.30839474	      2.33221337	      8.29729260	     -9.59083542	     14.08321376
      3.11500000	    -10.01922959	      8.98763945	     -3.62250321	     -2.30786555	     -0.03953828	      0.44674700	     13.72469590	    -10.32818687	      7.28152744	    -55.34685527	     -8.36433260	      6.90838557	     21.22686439	     30.91568295	     12.24862139	      2.94709595	    -26.58102258	     -2.00686997	     -3.37740621	      2.35991393	      8.17091089	     -9.56788749	     13.85940021
      3.12000000	    -10.01385037	      8.97627641	     -3.61642169	     -2.30134717	     -0.03841341	      0.44620648	     14.69795781	    -10.29299074	      7.27835391	    -56.00333882	     -8.08643571	      6.32123012	     21.17599870	     30.32854565	     12.34722775	      3.07456906	    -26.31586035	     -1.76202383	     -3.54152520	      2.31295268	      8.11919904	     -9.54248900	     13.67937351
      3.12500000	    -10.03893748	      8.90595892	     -3.60214781	     -2.29495043	     -0.03728836	      0.44562126	     15.69198101	    -10.18066236	      7.27391940	    -56.58505807	     -7.74011427	      5.82510725	     21.06432029	     29.78190765	     12.39871545	      3.26164622	    -26.07171179	     -1.55402500	     -3.75665330	      2.17719203	      8.07857145	     -9.43855447	     13.47090765
      3.13000000	    -10.04631042	      8.83391235	     -3.57475447	     -2.28849142	     -0.03611982	      0.44502102	     16.63944674	    -10.07610759	      7.23764219	    -57.07610911	     -7.34323164	      5.44502750	     20.96429136	     29.18927030	     12.46466867	      3.51652560	    -25.79752888	     -1.34103274	     -3.98787390	      1.99317712	      8.03546131	     -9.33613587	     13.25385853
      3.13500000	    -10.04361135	      8.73793486	     -3.53425635	     -2.28203878	     -0.03491299	      0.44438484	     17.55180822	     -9.95036849	      7.17295813	    -57.48057899	     -6.91924948	      5.13701299	     20.85610900	     28.57309538	     12.52164132	      3.82168241	    -25.51333580	     -1.14361150	     -4.26448861	      1.72563105	      7.98143202	     -9.20578154	     13.01825055
      3.14000000	    -10.02164256	      8.62266037	     -3.48685508	     -2.27560222	     -0.03366442	      0.44375038	     18.42286314	     -9.80767277	      7.07803872	    -57.80065624	     -6.48267379	      4.87761812	     20.77475615	     27.92595297	     12.56476691	      4.16550482	    -25.22115426	     -0.95322837	     -4.54385941	      1.42722111	      7.90792313	     -9.05810579	     12.77694192
      3.14500000	     -9.98894887	      8.48804383	     -3.44889132	     -2.26914149	     -0.03237374	      0.44313824	     19.26533347	     -9.64333087	      6.96849569	    -58.03507009	     -6.07725876	      4.65979828	     20.74478140	     27.24516273	     12.57948762	      4.53596780	    -24.89755912	     -0.74927548	     -4.79390040	      1.18730564	      7.83696419	     -8.89067473	     12.57890838
      3.15000000	     -9.93633394	      8.35947882	     -3.34353815	     -2.26269710	     -0.03104679	      0.44241286	     20.04981207	     -9.51562646	      6.77844477	    -58.19391208	     -5.62028719	      4.47629592	     20.59922494	     26.53678800	     12.63744293	      4.93740143	    -24.57805744	     -0.55429879	     -5.06815518	      0.63426098	      7.72915022	     -8.73785648	     12.22095101
      3.15500000	     -9.89461482	      8.15688621	     -3.25807161	     -2.25634935	     -0.02971368	      0.44173582	     20.83208612	     -9.29150920	      6.58283357	    -58.26729708	     -5.21705232	      4.27358986	     20.55364378	     25.84132531	     12.59359475	      5.34152185	    -24.25536231	     -0.36949517	     -5.30465620	      0.32868044	      7.62396404	     -8.50380740	     11.95711675
      3.16000000	     -9.82144546	      7.98271941	     -3.13837665	     -2.24993019	     -0.02832439	      0.44103206	     21.55442793	     -9.12380396	      6.33020591	    -58.26605101	     -4.84499281	      4.08895121	     20.46705444	     25.07954082	     12.58730083	      5.77930437	    -23.88532032	     -0.17411733	     -5.49226445	     -0.07043779	      7.50099376	     -8.31136280	     11.62222471
      3.16500000	     -9.76296135	      7.75868925	     -3.01439439	     -2.24358061	     -0.02695004	      0.44034084	     22.26959190	     -8.89758768	      6.05617527	    -58.18520397	     -4.48006963	      3.89865234	     20.40679552	     24.33765939	     12.51088592	      6.17478940	    -23.51207921	      0.01149677	     -5.64578691	     -0.33934430	      7.38512344	     -8.06530955	     11.31748031
      3.17000000	     -9.68843842	      7.54375922	     -2.86567874	     -2.23721954	     -0.02555165	      0.43962881	     22.94552348	     -8.69712144	      5.74242938	    -58.03350107	     -4.15794740	      3.69499361	     20.31921363	     23.55601668	     12.43946903	      6.57698584	    -23.09461837	      0.19874199	     -5.73601667	     -0.58168983	      7.25338770	     -7.83430136	     10.97759298
      3.17500000	     -9.59772142	      7.32659617	     -2.71157966	     -2.23089607	     -0.02415512	      0.43895785	     23.58908024	     -8.49521408	      5.41292821	    -57.81930236	     -3.86278271	      3.47943247	     20.19780513	     22.75016185	     12.34869178	      6.95351014	    -22.65489819	      0.39996943	     -5.76644547	     -0.77780718	      7.10350960	     -7.61151709	     10.62180209
      3.18000000	     -9.49274744	      7.10779059	     -2.54649865	     -2.22453290	     -0.02273689	      0.43829627	     24.18984089	     -8.30327198	      5.04763938	    -57.53062173	     -3.59538080	      3.25368363	     20.01605396	     21.90785171	     12.24103107	      7.29904641	    -22.17075809	      0.60172418	     -5.72716448	     -0.92941655	      6.94776255	     -7.38991915	     10.28280311
      3.18500000	     -9.46710820	      6.86560873	     -2.39666840	     -2.21824502	     -0.02146859	      0.43763525	     24.87539718	     -8.07005937	      4.71231603	    -57.19191091	     -3.34726937	      3.06169246	     19.91215861	     21.16347415	     12.08604295	      7.62494288	    -21.68861995	      0.79609879	     -5.69847204	     -0.94749511	      6.87480202	     -7.12821110	      9.99541986
      3.19000000	     -9.40116211	      6.61803900	     -2.19007633	     -2.21193942	     -0.02015918	      0.43700032	     25.47254902	     -7.86034569	      4.28802244	    -56.77068127	     -3.13975818	      2.78270245	     19.73482887	     20.36369563	     11.92690501	      7.95502963	    -21.18381974	      0.97476874	     -5.60368187	     -0.92728658	      6.75609721	     -6.89459257	      9.59815824
      3.19500000	     -9.28437360	      6.37043609	     -1.99672702	     -2.20564034	     -0.01881035	      0.43640939	     25.99011214	     -7.65098890	      3.85517251	    -56.27660361	     -2.94166014	      2.48583221	     19.44602633	     19.50994732	     11.74888289	      8.19985247	    -20.66017538	      1.12478190	     -5.48746674	     -0.86543758	      6.58689607	     -6.65640837	      9.18941271
      3.20000000	     -9.20597425	      6.13999439	     -1.82236564	     -2.19934363	     -0.01757340	      0.43586228	     26.54761547	     -7.44696448	      3.45725368	    -55.74519424	     -2.76119404	      2.23435027	     19.11293234	     18.68938798	     11.57127809	      8.47946930	    -20.11280031	      1.27109317	     -5.37415205	     -0.75824193	      6.46772836	     -6.43436205	      8.86422931
      3.20500000	     -9.18442508	      5.89223518	     -1.64331408	     -2.19309345	     -0.01647498	      0.43531683	     27.14957305	     -7.22431155	      3.05263493	    -55.15395432	     -2.58365286	      1.97845038	     18.83624220	     17.95333791	     11.37135858	      8.73815761	    -19.59667702	      1.41451942	     -5.30748971	     -0.67606534	      6.40658342	     -6.19145819	      8.51607629
      3.21000000	     -9.16009338	      5.65576246	     -1.47391952	     -2.18684130	     -0.01543040	      0.43481070	     27.73252649	     -7.01095692	      2.65685167	    -54.50663050	     -2.42808964	      1.72627241	     18.52882110	     17.21315699	     11.17521647	      9.01237420	    -19.07339972	      1.54572416	     -5.25608684	     -0.60961705	      6.34763184	     -5.96068774	      8.19073265
      3.21500000	     -9.15191374	      5.42485956	     -1.31087047	     -2.18059838	     -0.01447945	      0.43433682	     28.31694138	     -6.80055259	      2.26999136	    -53.80677564	     -2.27513032	      1.49441276	     18.20868281	     16.49806882	     10.98138490	      9.30115702	    -18.55974815	      1.66642867	     -5.25035995	     -0.58575516	      6.30835432	     -5.73812948	      7.87787151
      3.22000000	     -9.16429555	      5.19537744	     -1.15694073	     -2.17436200	     -0.01362325	      0.43387796	     28.90675644	     -6.59037868	      1.89155920	    -53.05195783	     -2.12581055	      1.28901960	     17.88894244	     15.81439548	     10.78774484	      9.61065068	    -18.06099659	      1.77785092	     -5.29816912	     -0.62200776	      6.29467604	     -5.51255696	      7.57796185
      3.22500000	     -9.19546996	      4.96906989	     -1.00697268	     -2.16814170	     -0.01286885	      0.43345818	     29.49801227	     -6.38064734	      1.52171446	    -52.24216746	     -1.97353437	      1.10566192	     17.57761566	     15.16339661	     10.59663846	      9.93740781	    -17.58220192	      1.88348679	     -5.40254280	     -0.72420322	      6.30081233	     -5.29632762	      7.28311370
      3.23000000	     -9.23988575	      4.74423678	     -0.86325657	     -2.16192615	     -0.01220901	      0.43303934	     30.08346482	     -6.17231773	      1.16400716	    -51.37763788	     -1.81974991	      0.95267909	     17.26489935	     14.53700854	     10.40956580	     10.29553187	    -17.12481090	      1.98549331	     -5.56154947	     -0.89496146	      6.32202904	     -5.07616914	      6.99656387
      3.23500000	     -9.34159145	      4.53014882	     -0.80268896	     -2.15571793	     -0.01171290	      0.43275182	     30.73306439	     -5.92310194	      0.92110046	    -50.46697541	     -1.67037375	      0.90417665	     17.08601251	     13.98825950	     10.20555924	     10.57544048	    -16.67922983	      2.11687835	     -5.72717509	     -1.03155847	      6.41734282	     -4.85207572	      6.83079514
      3.24000000	     -9.37706573	      4.30050961	     -0.58573885	     -2.14952743	     -0.01118002	      0.43227691	     31.24042532	     -5.75936116	      0.47462605	    -49.47533434	     -1.52508322	      0.73360462	     16.71236280	     13.37098877	     10.04185087	     11.07164246	    -16.27044339	      2.18174865	     -6.02384918	     -1.39292860	      6.41621186	     -4.64708633	      6.43949840
      3.24500000	     -9.45819600	      4.07704159	     -0.46007717	     -2.14331875	     -0.01077617	      0.43189985	     31.79104797	     -5.54922227	      0.15538467	    -48.43119236	     -1.37225761	      0.72163241	     16.41667559	     12.81836066	      9.85519179	     11.45307851	    -15.87438333	      2.27510280	     -6.29584880	     -1.73478931	      6.48034275	     -4.42180357	      6.19925341
      3.25000000	     -9.53394964	      3.87170793	     -0.33804172	     -2.13713829	     -0.01049736	      0.43157291	     32.32197734	     -5.35408223	     -0.14945798	    -47.35264153	     -1.20412653	      0.72566284	     16.11161929	     12.26357226	      9.68590299	     11.88382812	    -15.48993412	      2.41120083	     -6.60446927	     -2.13786992	      6.52886604	     -4.22688642	      5.91672886
